# xmcd CD database file
#
# Track frame offsets:
#	150
#	16782
#	35867
#	57538
#	78493
#	101041
#	122932
#	134724
#	153136
#	179152
#	200646
#	220923
#
# Disc length: 3176 seconds
#
# Revision: 0
# Processed by: cddbd v1.5.1PL2 Copyright (c) Steve Scherf et al.
# Submitted via: CDex 1.51
#
DISCID=b80c660c
DTITLE=Various Artist - Simply Jazz, Series 7
DYEAR=1999
DGENRE=Jazz
TTITLE0=Will Lee - I Know Too Much (About Sadness)
TTITLE1=The Taliesen Orchestra - Orinoco Flow
TTITLE2=Kal David - Thing Called Love
TTITLE3=Ben Sidran - Shine A Light On Me
TTITLE4=Bill Champlin - He Started To Sing
TTITLE5=Robert Strickland - Glass Ballerina
TTITLE6=Dalls Smith and Susan Maazer - Child's Play
TTITLE7=KalDavid - Blue Nights
TTITLE8=Oceans - Free Country
TTITLE9=Angela Bofill - Are You Leaving Me Now
TTITLE10=Don Duncan - I Don't Wanna Say Goodbye
TTITLE11=Versatile - Cuddle With Me
EXTD=YEAR: 1999
EXTT0=
EXTT1=
EXTT2=
EXTT3=
EXTT4=
EXTT5=
EXTT6=
EXTT7=
EXTT8=
EXTT9=
EXTT10=
EXTT11=
PLAYORDER=
